<svg width="29" height="29" viewBox="0 0 29 29" fill="none" xmlns="http://www.w3.org/2000/svg">
<g clip-path="url(#clip0_364_151)">
<path fill-rule="evenodd" clip-rule="evenodd" d="M19.9374 7.25C21.047 7.24985 22.1122 7.68579 22.9034 8.46381C23.6945 9.24184 24.1482 10.2996 24.1666 11.4091C24.2753 12.4543 24.2596 13.9949 23.5528 15.776C22.8314 17.5957 21.4213 19.5798 18.8499 21.5083C18.723 21.6035 18.5785 21.6728 18.4248 21.7122C18.2711 21.7516 18.1111 21.7603 17.954 21.7379C17.6368 21.6925 17.3505 21.523 17.1583 21.2667C16.966 21.0103 16.8834 20.688 16.9287 20.3708C16.9741 20.0535 17.1435 19.7673 17.3999 19.575C19.2898 18.1576 20.3736 16.7789 20.9923 15.5754C20.3674 15.7356 19.7142 15.7509 19.0826 15.6201C18.4509 15.4892 17.8575 15.2158 17.3477 14.8206C16.8379 14.4254 16.4252 13.9188 16.141 13.3397C15.8569 12.7606 15.7088 12.1242 15.7083 11.4792C15.7083 10.3575 16.1538 9.28182 16.9469 8.48869C17.7401 7.69557 18.8158 7.25 19.9374 7.25ZM9.06242 7.25C10.172 7.24985 11.2372 7.68579 12.0284 8.46381C12.8195 9.24184 13.2732 10.2996 13.2916 11.4091C13.4003 12.4543 13.3846 13.9949 12.6778 15.776C11.9564 17.5957 10.5463 19.5798 7.97492 21.5083C7.84797 21.6035 7.70352 21.6728 7.5498 21.7122C7.39609 21.7516 7.23612 21.7603 7.07903 21.7379C6.76179 21.6925 6.47553 21.523 6.28325 21.2667C6.09097 21.0103 6.00841 20.688 6.05373 20.3708C6.09905 20.0535 6.26854 19.7673 6.52492 19.575C8.41475 18.1576 9.49863 16.7789 10.1173 15.5754C9.49246 15.7354 8.83934 15.7505 8.20778 15.6195C7.57623 15.4886 6.98293 15.2151 6.47318 14.82C5.96342 14.4248 5.55069 13.9184 5.26648 13.3394C4.98226 12.7604 4.83409 12.1242 4.83325 11.4792C4.83325 10.3575 5.27882 9.28182 6.07195 8.48869C6.86507 7.69557 7.94077 7.25 9.06242 7.25ZM19.9374 9.66667C19.5868 9.6666 19.2436 9.76826 18.9496 9.95931C18.6555 10.1504 18.4232 10.4226 18.2808 10.7431C18.1384 11.0635 18.092 11.4184 18.1472 11.7647C18.2024 12.1109 18.3569 12.4338 18.592 12.694C18.827 12.9542 19.1325 13.1407 19.4714 13.2308C19.8103 13.3209 20.168 13.3108 20.5012 13.2016C20.8345 13.0925 21.1289 12.889 21.3488 12.6159C21.5687 12.3427 21.7047 12.0117 21.7403 11.6628L21.7499 11.4671C21.7467 10.9885 21.5544 10.5306 21.2148 10.1933C20.8752 9.85596 20.416 9.66666 19.9374 9.66667ZM9.06242 9.66667C8.71176 9.6666 8.3686 9.76826 8.07456 9.95931C7.78052 10.1504 7.54821 10.4226 7.40579 10.7431C7.26338 11.0635 7.21697 11.4184 7.27221 11.7647C7.32744 12.1109 7.48194 12.4338 7.71697 12.694C7.952 12.9542 8.25748 13.1407 8.59637 13.2308C8.93525 13.3209 9.293 13.3108 9.62625 13.2016C9.95949 13.0925 10.2539 12.889 10.4738 12.6159C10.6938 12.3427 10.8297 12.0117 10.8653 11.6628L10.8749 11.4671C10.8717 10.9885 10.6794 10.5306 10.3398 10.1933C10.0002 9.85596 9.54104 9.66666 9.06242 9.66667Z" fill="#41C7F2"/>
</g>
<defs>
<clipPath id="clip0_364_151">
<rect width="29" height="29" fill="white"/>
</clipPath>
</defs>
</svg>
