<svg width="90" height="90" viewBox="0 0 90 90" fill="none" xmlns="http://www.w3.org/2000/svg">
<g clip-path="url(#clip0_361_1413)">
<path d="M45 7.5C65.7113 7.5 82.5 24.2888 82.5 45C82.5 65.7113 65.7113 82.5 45 82.5C24.2888 82.5 7.5 65.7113 7.5 45C7.5 24.2888 24.2888 7.5 45 7.5ZM45 15C37.0435 15 29.4129 18.1607 23.7868 23.7868C18.1607 29.4129 15 37.0435 15 45C15 52.9565 18.1607 60.5871 23.7868 66.2132C29.4129 71.8393 37.0435 75 45 75C52.9565 75 60.5871 71.8393 66.2132 66.2132C71.8393 60.5871 75 52.9565 75 45C75 37.0435 71.8393 29.4129 66.2132 23.7868C60.5871 18.1607 52.9565 15 45 15ZM58.2562 31.4287C58.9295 30.749 59.8371 30.3524 60.7933 30.3199C61.7495 30.2875 62.6819 30.6217 63.3997 31.2542C64.1175 31.8868 64.5664 32.7697 64.6545 33.7223C64.7426 34.675 64.4633 35.6253 63.8738 36.3787L63.5625 36.7313L42.615 57.6825C41.9 58.3974 40.9475 58.8247 39.9381 58.8835C38.9288 58.9423 37.9331 58.6283 37.14 58.0013L36.78 57.6825L26.4375 47.34C25.7578 46.6667 25.3611 45.7591 25.3287 44.8029C25.2962 43.8468 25.6305 42.9144 26.263 42.1966C26.8955 41.4788 27.7784 41.0299 28.7311 40.9417C29.6837 40.8536 30.634 41.1329 31.3875 41.7225L31.74 42.0375L39.6975 49.9913L58.26 31.4287H58.2562Z" fill="#25D366"/>
</g>
<defs>
<clipPath id="clip0_361_1413">
<rect width="90" height="90" fill="white"/>
</clipPath>
</defs>
</svg>
