<svg width="29" height="29" viewBox="0 0 29 29" fill="none" xmlns="http://www.w3.org/2000/svg">
<g clip-path="url(#clip0_364_150)">
<path fill-rule="evenodd" clip-rule="evenodd" d="M11.8416 7.73333C11.9368 7.86028 12.0061 8.00473 12.0455 8.15845C12.0848 8.31216 12.0936 8.47213 12.0711 8.62922C12.0487 8.7863 11.9955 8.93743 11.9147 9.07397C11.8338 9.21051 11.7269 9.32979 11.5999 9.425C9.7101 10.8424 8.62623 12.2211 8.00756 13.4246C8.85868 13.2055 9.7569 13.257 10.5774 13.5719C11.3979 13.8869 12.0999 14.4496 12.5858 15.1819C13.0717 15.9142 13.3174 16.7798 13.2888 17.6581C13.2601 18.5365 12.9585 19.3842 12.4259 20.0833C11.8933 20.7823 11.1561 21.2981 10.3168 21.5589C9.47753 21.8197 8.57785 21.8125 7.74283 21.5384C6.90781 21.2643 6.17892 20.7369 5.65748 20.0294C5.13604 19.322 4.84796 18.4697 4.83327 17.5909C4.67849 16.107 4.88923 14.6077 5.4471 13.224C6.16848 11.4043 7.5786 9.42017 10.1499 7.49167C10.2769 7.39646 10.4213 7.32719 10.5751 7.2878C10.7288 7.24842 10.8887 7.2397 11.0458 7.26214C11.2029 7.28459 11.354 7.33775 11.4906 7.41859C11.6271 7.49944 11.7464 7.60639 11.8416 7.73333ZM21.0249 7.49167C21.1519 7.39646 21.2963 7.32719 21.4501 7.2878C21.6038 7.24842 21.7637 7.2397 21.9208 7.26214C22.0779 7.28459 22.229 7.33775 22.3656 7.41859C22.5021 7.49944 22.6214 7.60639 22.7166 7.73333C22.8118 7.86028 22.8811 8.00473 22.9205 8.15845C22.9598 8.31216 22.9686 8.47213 22.9461 8.62922C22.9237 8.7863 22.8705 8.93743 22.7897 9.07397C22.7088 9.21051 22.6019 9.32979 22.4749 9.425C20.5851 10.8424 19.5012 12.2211 18.8826 13.4246C19.7337 13.2055 20.6319 13.257 21.4524 13.5719C22.2729 13.8869 22.9749 14.4496 23.4608 15.1819C23.9467 15.9142 24.1924 16.7798 24.1638 17.6581C24.1351 18.5365 23.8335 19.3842 23.3009 20.0833C22.7683 20.7823 22.0311 21.2981 21.1918 21.5589C20.3525 21.8197 19.4529 21.8125 18.6178 21.5384C17.7828 21.2643 17.0539 20.7369 16.5325 20.0294C16.011 19.322 15.723 18.4697 15.7083 17.5909C15.5535 16.107 15.7643 14.6078 16.3221 13.224C17.0447 11.4043 18.4536 9.42017 21.0249 7.49167ZM9.06244 15.7083C8.61359 15.7084 8.18074 15.875 7.84769 16.1759C7.51464 16.4769 7.30509 16.8906 7.2596 17.3372L7.24994 17.5329C7.25232 17.8909 7.36065 18.2401 7.56125 18.5366C7.76186 18.833 8.04576 19.0635 8.37715 19.1988C8.70855 19.3341 9.0726 19.3683 9.42339 19.297C9.77418 19.2257 10.096 19.0522 10.3483 18.7982C10.6006 18.5442 10.772 18.2213 10.8409 17.87C10.9099 17.5188 10.8733 17.1549 10.7358 16.8245C10.5982 16.494 10.3659 16.2116 10.0681 16.013C9.77034 15.8143 9.4204 15.7083 9.06244 15.7083ZM19.9374 15.7083C19.4886 15.7084 19.0557 15.875 18.7227 16.1759C18.3896 16.4769 18.1801 16.8906 18.1346 17.3372L18.1249 17.5329C18.1273 17.8909 18.2356 18.2401 18.4363 18.5366C18.6369 18.833 18.9208 19.0635 19.2522 19.1988C19.5835 19.3341 19.9476 19.3683 20.2984 19.297C20.6492 19.2257 20.971 19.0522 21.2233 18.7982C21.4756 18.5442 21.647 18.2213 21.7159 17.87C21.7849 17.5188 21.7483 17.1549 21.6108 16.8245C21.4732 16.494 21.2409 16.2116 20.9431 16.013C20.6453 15.8143 20.2954 15.7083 19.9374 15.7083Z" fill="#41C7F2"/>
</g>
<defs>
<clipPath id="clip0_364_150">
<rect width="29" height="29" fill="white"/>
</clipPath>
</defs>
</svg>
