<svg width="90" height="90" viewBox="0 0 90 90" fill="none" xmlns="http://www.w3.org/2000/svg">
<g clip-path="url(#clip0_361_1427)">
<path fill-rule="evenodd" clip-rule="evenodd" d="M45 7.5C65.7113 7.5 82.5 24.2888 82.5 45C82.5 65.7113 65.7113 82.5 45 82.5C24.2888 82.5 7.5 65.7113 7.5 45C7.5 24.2888 24.2888 7.5 45 7.5ZM45 15C37.0435 15 29.4129 18.1607 23.7868 23.7868C18.1607 29.4129 15 37.0435 15 45C15 52.9565 18.1607 60.5871 23.7868 66.2132C29.4129 71.8393 37.0435 75 45 75C52.9565 75 60.5871 71.8393 66.2132 66.2132C71.8393 60.5871 75 52.9565 75 45C75 37.0435 71.8393 29.4129 66.2132 23.7868C60.5871 18.1607 52.9565 15 45 15ZM45 48.75C49.7513 48.75 54.1012 50.5238 57.405 53.4375C58.1509 54.0959 58.6047 55.0237 58.6666 56.0167C58.7285 57.0097 58.3934 57.9866 57.735 58.7325C57.0766 59.4784 56.1488 59.9322 55.1558 59.9941C54.1628 60.056 53.1859 59.7209 52.44 59.0625C50.3879 57.2458 47.7407 56.2451 45 56.25C42.1463 56.25 39.5438 57.3075 37.56 59.0625C37.1907 59.3883 36.7608 59.6381 36.2949 59.7977C35.829 59.9573 35.3362 60.0236 34.8447 59.9928C34.3532 59.962 33.8726 59.8347 33.4303 59.6181C32.988 59.4015 32.5926 59.1 32.2669 58.7306C31.9411 58.3613 31.6913 57.9314 31.5317 57.4655C31.372 56.9996 31.3058 56.5068 31.3366 56.0153C31.3674 55.5238 31.4947 55.0432 31.7113 54.6009C31.9278 54.1586 32.2294 53.7633 32.5987 53.4375C36.021 50.4124 40.4324 48.745 45 48.75ZM31.875 30C33.3668 30 34.7976 30.5926 35.8525 31.6475C36.9074 32.7024 37.5 34.1332 37.5 35.625C37.5 37.1168 36.9074 38.5476 35.8525 39.6025C34.7976 40.6574 33.3668 41.25 31.875 41.25C30.3832 41.25 28.9524 40.6574 27.8975 39.6025C26.8426 38.5476 26.25 37.1168 26.25 35.625C26.25 34.1332 26.8426 32.7024 27.8975 31.6475C28.9524 30.5926 30.3832 30 31.875 30ZM58.125 30C59.6168 30 61.0476 30.5926 62.1025 31.6475C63.1574 32.7024 63.75 34.1332 63.75 35.625C63.75 37.1168 63.1574 38.5476 62.1025 39.6025C61.0476 40.6574 59.6168 41.25 58.125 41.25C56.6332 41.25 55.2024 40.6574 54.1475 39.6025C53.0926 38.5476 52.5 37.1168 52.5 35.625C52.5 34.1332 53.0926 32.7024 54.1475 31.6475C55.2024 30.5926 56.6332 30 58.125 30Z" fill="#F24141"/>
</g>
<defs>
<clipPath id="clip0_361_1427">
<rect width="90" height="90" fill="white"/>
</clipPath>
</defs>
</svg>
